<svg xmlns="http://www.w3.org/2000/svg" viewBox="0 0 512 512">
  <defs>
    <linearGradient id="g" x1="0" x2="1" y1="0" y2="1">
      <stop offset="0" stop-color="#10b981"/>
      <stop offset="1" stop-color="#059669"/>
    </linearGradient>
  </defs>
  <rect x="0" y="0" width="512" height="512" rx="96" fill="url(#g)"/>
  <g fill="#ffffff" transform="translate(256,256)">
    <g transform="translate(-96,-128)">
      <path d="M128 32c8.84 0 16 7.16 16 16v16h32c8.84 0 16 7.16 16 16s-7.16 16-16 16h-32v64h48c8.84 0 16 7.16 16 16s-7.16 16-16 16h-48v16c0 8.84-7.16 16-16 16s-16-7.16-16-16v-16H80c-26.51 0-48-21.49-48-48 0-8.84 7.16-16 16-16s16 7.16 16 16c0 8.82 7.18 16 16 16h48V96H96C69.49 96 48 74.51 48 48c0-8.84 7.16-16 16-16s16 7.16 16 16c0 8.82 7.18 16 16 16h48V48c0-8.84 7.16-16 16-16z"/>
    </g>
  </g>
</svg>
